<svg width="16" height="16" viewBox="0 0 24 24" fill="none" xmlns="http://www.w3.org/2000/svg">
        <rect width="16" height="16" rx="3.2" fill="url(#gradient)"/>
        <defs>
            <linearGradient id="gradient" x1="0%" y1="0%" x2="100%" y2="100%">
                <stop offset="0%" style="stop-color:#3b82f6"/>
                <stop offset="100%" style="stop-color:#8b5cf6"/>
            </linearGradient>
        </defs>
        <path d="M4 14a1 1 0 0 1-.78-1.63l9.9-10.2a.5.5 0 0 1 .86.46l-1.92 6.02A1 1 0 0 0 13 10h7a1 1 0 0 1 .78 1.63l-9.9 10.2a.5.5 0 0 1-.86-.46l1.92-6.02A1 1 0 0 0 11 14z" 
              fill="white" stroke="white" stroke-width="0.5"/>
    </svg>